<?xml version="1.0" encoding="iso-8859-1"?>
<!-- Uploaded to: SVG Repo, www.svgrepo.com, Generator: SVG Repo Mixer Tools -->
<svg height="800px" width="800px" version="1.1" id="Layer_1" xmlns="http://www.w3.org/2000/svg" xmlns:xlink="http://www.w3.org/1999/xlink" 
	 viewBox="0 0 392.533 392.533" xml:space="preserve">
<path style="fill:#FFFFFF;" d="M359.822,68.105H32.711c-6.012,0-10.925,4.848-10.925,10.925v234.473
	c0,6.012,4.848,10.925,10.925,10.925h327.111c6.012,0,10.925-4.848,10.925-10.925V79.03
	C370.747,72.954,365.834,68.105,359.822,68.105z"/>
<path style="fill:#194F82;" d="M359.822,46.319H32.711C14.675,46.319,0,60.929,0,79.03v234.473
	c0,18.101,14.675,32.711,32.711,32.711h327.111c18.036,0,32.711-14.675,32.711-32.711V79.03
	C392.533,60.929,377.859,46.319,359.822,46.319z M370.747,313.438c0,6.012-4.848,10.925-10.925,10.925H32.711
	c-6.012,0-10.925-4.849-10.925-10.925V79.03c0-6.012,4.848-10.925,10.925-10.925h327.111c6.012,0,10.925,4.848,10.925,10.925
	v234.473l0,0V313.438z"/>
<path style="fill:#FFC10D;" d="M43.572,299.152V93.253c0-1.875,1.487-3.297,3.297-3.297h298.602c1.875,0,3.297,1.487,3.297,3.297
	v205.964c0,1.875-1.487,3.297-3.297,3.297H46.998C45.123,302.578,43.572,301.026,43.572,299.152z"/>
<g>
	<path style="fill:#194F82;" d="M314.828,128.097h-78.61c-6.012,0-10.925-4.848-10.925-10.925c0-6.012,4.848-10.925,10.925-10.925
		h78.61c6.012,0,10.925,4.848,10.925,10.925C325.689,123.184,320.84,128.097,314.828,128.097z"/>
	<path style="fill:#194F82;" d="M314.828,170.57h-40.792c-6.012,0-10.925-4.848-10.925-10.925c0-6.012,4.848-10.925,10.925-10.925
		h40.792c6.012,0,10.925,4.848,10.925,10.925C325.689,165.721,320.84,170.57,314.828,170.57z"/>
</g>
<path style="fill:#FFFFFF;" d="M90.505,129.261c-8.792,0-15.968,7.176-15.968,15.968c0,8.792,7.176,15.968,15.968,15.968
	s15.968-7.176,15.968-15.968C106.473,136.436,99.297,129.261,90.505,129.261z"/>
<g>
	<path style="fill:#194F82;" d="M90.505,107.475c-20.881,0-37.818,16.937-37.818,37.818s16.937,37.818,37.818,37.818
		s37.818-17.002,37.818-37.818C128.259,124.347,111.257,107.475,90.505,107.475z M90.505,161.131
		c-8.792,0-15.968-7.176-15.968-15.968c0-8.792,7.176-15.968,15.968-15.968s15.968,7.176,15.968,15.968
		C106.473,153.956,99.297,161.131,90.505,161.131z"/>
	<path style="fill:#194F82;" d="M271.451,210.78H120.63c-6.012,0-10.925-4.848-10.925-10.925s4.848-10.925,10.925-10.925h150.756
		c6.012,0,10.925,4.848,10.925,10.925C282.376,205.867,277.463,210.78,271.451,210.78z"/>
	<path style="fill:#194F82;" d="M173.446,249.503H74.537c-6.012,0-10.925-4.848-10.925-10.925c0-6.012,4.848-10.925,10.925-10.925
		h98.909c6.012,0,10.925,4.848,10.925,10.925C184.372,244.525,179.523,249.503,173.446,249.503z"/>
	<path style="fill:#194F82;" d="M135.628,291.071H74.537c-6.012,0-10.925-4.848-10.925-10.925s4.848-10.925,10.925-10.925h61.091
		c6.012,0,10.925,4.849,10.925,10.925C146.489,286.093,141.64,291.071,135.628,291.071z"/>
</g>
</svg>